<?xml version="1.0" standalone="no"?>
<!DOCTYPE svg PUBLIC "-//W3C//DTD SVG 20010904//EN"
 "http://www.w3.org/TR/2001/REC-SVG-20010904/DTD/svg10.dtd">
<svg version="1.0" xmlns="http://www.w3.org/2000/svg"
 width="900.000000pt" height="349.000000pt" viewBox="0 0 900.000000 349.000000"
 preserveAspectRatio="xMidYMid meet">

<g transform="translate(0.000000,349.000000) scale(0.100000,-0.100000)"
fill="#000000" stroke="none">
<path d="M0 1745 l0 -1745 4500 0 4500 0 0 1745 0 1745 -4500 0 -4500 0 0
-1745z m1937 1115 c64 -27 137 -102 154 -159 7 -22 14 -41 16 -41 2 0 31 9 64
20 127 43 278 43 402 1 l56 -20 16 48 c44 135 202 209 351 166 104 -30 172
-96 200 -192 38 -132 -47 -276 -187 -313 l-39 -11 24 -42 c13 -23 36 -76 51
-117 14 -41 37 -91 50 -111 96 -146 145 -302 152 -486 3 -73 7 -133 8 -133 1
0 62 25 136 56 169 71 166 72 222 -79 22 -59 38 -109 36 -111 -2 -2 -245 -96
-540 -210 -532 -204 -538 -206 -614 -206 l-78 0 6 49 c12 101 73 174 194 234
38 19 184 81 326 138 l259 104 -6 80 c-3 44 -13 107 -21 139 -21 76 -76 199
-85 189 -4 -4 -12 -35 -19 -68 -17 -79 -70 -188 -123 -252 -221 -264 -624
-334 -953 -165 -49 25 -95 61 -155 121 -95 96 -138 170 -166 287 -10 38 -19
76 -21 84 -6 21 -37 -41 -73 -147 -26 -78 -57 -259 -47 -269 2 -3 125 -54 273
-114 323 -133 355 -149 416 -208 47 -45 68 -89 82 -169 l6 -33 -81 0 -80 0
-537 206 c-295 114 -539 208 -541 210 -2 2 14 52 36 111 57 152 52 150 233 75
l145 -60 7 142 c9 195 44 312 142 471 24 39 49 88 56 110 7 22 28 70 47 108
30 61 32 68 16 73 -61 20 -127 61 -157 96 -128 149 -55 368 139 419 49 13 146
3 202 -21z m5443 -710 c0 -329 1 -340 20 -352 18 -11 20 -24 20 -109 0 -111 2
-109 -93 -109 -73 0 -117 22 -137 69 l-13 31 -33 -34 c-49 -50 -108 -70 -196
-64 -85 6 -136 28 -189 85 -101 105 -124 278 -56 422 75 161 281 213 399 100
l38 -36 0 169 0 168 120 0 120 0 0 -340z m-2434 286 c210 -98 240 -382 56
-523 -56 -42 -98 -53 -209 -53 l-93 0 0 -135 0 -135 -125 0 -125 0 0 435 0
435 223 0 c213 0 224 -1 273 -24z m695 -210 c62 -23 113 -67 140 -123 19 -40
24 -68 27 -171 4 -107 7 -125 23 -135 16 -10 19 -25 19 -108 0 -111 2 -109
-93 -109 -73 0 -117 22 -137 69 l-12 31 -34 -30 c-52 -45 -92 -62 -159 -67
-85 -7 -139 10 -189 60 -107 107 -76 260 67 331 48 24 72 29 130 30 40 1 89
-3 110 -7 35 -7 37 -6 37 16 0 14 -9 35 -19 48 -17 22 -27 24 -98 24 -69 0
-85 -4 -136 -32 l-58 -32 -33 72 -33 72 26 17 c26 18 123 52 171 62 48 9 206
-2 251 -18z m846 3 c30 -15 52 -35 71 -67 l27 -47 3 -262 3 -263 -115 0 c-104
0 -116 2 -116 18 0 9 -1 101 -2 203 -3 168 -5 189 -22 208 -30 33 -79 28 -124
-13 l-37 -34 -3 -191 -3 -191 -115 0 -114 0 0 325 0 325 105 0 105 0 0 -46 0
-46 39 35 c73 66 212 87 298 46z m1474 -3 c62 -23 113 -67 140 -123 19 -40 24
-68 27 -171 4 -107 7 -125 23 -135 16 -10 19 -25 19 -108 0 -111 2 -109 -93
-109 -73 0 -117 22 -137 69 l-12 31 -34 -30 c-52 -45 -92 -62 -159 -67 -85 -7
-139 10 -189 60 -107 107 -76 260 67 331 48 24 72 29 130 30 40 1 89 -3 110
-7 35 -7 37 -6 37 16 0 14 -9 35 -19 48 -17 22 -27 24 -98 24 -69 0 -85 -4
-136 -32 l-58 -32 -33 72 -33 72 26 17 c26 18 123 52 171 62 48 9 206 -2 251
-18z m-3111 -836 c16 -11 36 -40 45 -65 23 -59 13 -109 -28 -150 l-32 -32 27
-16 c66 -38 88 -134 45 -198 -39 -59 -73 -69 -239 -69 l-148 0 0 275 0 275
151 0 c135 0 154 -2 179 -20z m1158 -53 l3 -67 44 0 c38 0 45 -3 45 -20 0 -17
-7 -20 -45 -20 l-45 0 0 -160 c0 -160 0 -160 24 -171 18 -8 33 -8 55 -1 31 11
48 2 36 -18 -9 -14 -71 -29 -97 -23 -55 14 -58 23 -58 205 l0 168 -30 0 c-23
0 -30 4 -30 20 0 16 7 20 30 20 l30 0 0 71 c0 62 2 70 18 67 14 -3 18 -16 20
-71z m-704 -97 c106 -67 127 -221 43 -317 -80 -91 -197 -95 -285 -10 -41 40
-67 121 -58 182 22 145 179 221 300 145z m460 0 c106 -67 127 -221 43 -317
-84 -95 -215 -94 -295 2 -147 179 59 437 252 315z m680 16 c31 -13 76 -59 76
-77 0 -18 -37 -8 -60 16 -72 77 -199 42 -244 -67 -22 -52 -20 -86 9 -144 51
-103 166 -125 247 -47 16 16 33 23 43 19 14 -5 14 -8 -1 -31 -37 -57 -126 -86
-201 -66 -172 47 -203 300 -48 388 47 26 128 31 179 9z m422 -16 c48 -45 54
-69 54 -210 0 -80 4 -130 10 -130 6 0 10 -9 10 -21 0 -33 -44 -22 -48 13 l-3
27 -36 -25 c-64 -43 -130 -54 -187 -30 -79 33 -103 128 -45 185 16 17 49 36
72 42 40 11 135 7 170 -7 14 -5 17 0 17 29 0 53 -16 85 -52 107 -42 25 -91 25
-147 0 -51 -24 -61 -25 -61 -6 0 7 21 23 48 35 66 30 160 26 198 -9z m214 -16
l0 -46 26 32 c36 42 74 60 130 60 39 0 51 -5 80 -34 19 -19 34 -42 34 -52 0
-14 8 -9 31 19 17 21 44 44 59 52 38 20 110 19 138 -1 47 -33 56 -68 60 -236
4 -155 4 -158 -17 -158 -20 0 -21 5 -21 120 0 200 -21 253 -101 253 -46 0 -82
-23 -116 -73 -21 -30 -23 -44 -23 -166 0 -125 -1 -134 -19 -134 -18 0 -19 10
-23 154 -3 138 -5 158 -24 182 -52 70 -167 36 -203 -59 -6 -16 -11 -84 -11
-153 0 -117 -1 -124 -20 -124 -19 0 -20 7 -20 205 0 198 1 205 20 205 17 0 20
-7 20 -46z m718 8 l3 -32 39 31 c66 53 163 52 226 -3 51 -45 76 -100 76 -167
0 -67 -18 -115 -58 -155 -75 -75 -175 -74 -252 3 l-32 33 0 -126 c0 -119 -1
-126 -20 -126 -20 0 -20 7 -20 291 0 271 1 290 18 287 11 -2 18 -14 20 -36z
m-6268 -187 c414 -159 555 -218 554 -229 -6 -119 -3 -117 -111 -76 -478 179
-1059 402 -1069 411 -35 29 -3 109 44 109 15 0 277 -97 582 -215z m2290 183
c11 -18 20 -36 20 -39 0 -32 -72 -64 -610 -267 -565 -214 -575 -218 -582 -195
-3 13 -8 41 -10 64 l-3 41 555 213 c305 118 567 214 583 215 20 0 32 -8 47
-32z m-1284 -465 c19 -115 -1 -184 -61 -209 -41 -17 -178 -19 -223 -3 -62 21
-85 102 -66 222 l7 37 168 0 168 0 7 -47z"/>
<path d="M1742 2824 c-52 -26 -74 -49 -107 -113 -23 -46 -23 -146 0 -192 32
-63 98 -119 140 -119 9 0 49 34 87 76 39 41 91 89 115 105 39 27 43 34 43 72
-1 62 -37 126 -94 165 -61 41 -111 42 -184 6z"/>
<path d="M2839 2827 c-56 -30 -104 -93 -118 -154 -10 -47 -10 -48 22 -72 17
-14 72 -65 120 -114 88 -88 89 -89 119 -76 113 47 171 201 119 314 -51 111
-163 154 -262 102z"/>
<path d="M2028 2336 c-119 -42 -239 -218 -223 -325 29 -191 257 -279 396 -154
64 58 82 103 87 214 6 148 -22 213 -112 255 -57 27 -94 29 -148 10z m-48 -286
c4 -8 13 -27 19 -42 14 -37 55 -47 89 -21 15 11 28 29 30 41 2 11 10 26 18 33
12 10 18 9 31 -4 14 -14 15 -22 4 -56 -29 -99 -167 -117 -221 -29 -20 33 -26
78 -13 92 11 10 35 3 43 -14z"/>
<path d="M2587 2340 c-46 -14 -98 -60 -118 -104 -26 -58 -26 -234 0 -291 84
-186 345 -194 437 -14 52 103 23 215 -84 324 -76 78 -159 108 -235 85z m10
-278 c6 -4 15 -20 18 -35 8 -30 39 -57 66 -57 27 0 69 39 69 65 0 28 28 41 48
21 35 -34 -27 -128 -93 -140 -68 -13 -145 45 -145 109 0 42 11 54 37 37z"/>
<path d="M2280 1681 c-52 -11 -79 -29 -86 -56 -19 -75 73 -155 179 -155 135 0
235 153 128 197 -41 17 -169 26 -221 14z"/>
<path d="M2170 1480 c0 -38 25 -77 61 -95 15 -8 40 -26 54 -39 50 -46 119 -45
173 2 17 15 45 35 62 44 32 18 65 80 56 104 -9 23 -46 17 -46 -6 0 -12 -11
-32 -25 -45 -28 -28 -80 -33 -110 -11 -17 12 -23 12 -47 0 -58 -30 -110 -13
-128 41 -15 47 -50 50 -50 5z m230 -96 c38 -19 25 -34 -30 -34 -54 0 -69 15
-34 33 16 8 29 15 30 16 0 1 16 -6 34 -15z"/>
<path d="M6969 2035 c-40 -22 -62 -77 -57 -143 4 -47 10 -60 37 -84 43 -39
115 -40 160 -2 29 24 31 30 31 91 0 73 -17 111 -60 137 -34 20 -76 20 -111 1z"/>
<path d="M4700 2160 l0 -90 74 0 c66 0 77 3 90 22 23 33 21 113 -4 138 -16 16
-33 20 -90 20 l-70 0 0 -90z"/>
<path d="M5435 1870 c-47 -19 -64 -81 -29 -107 26 -19 94 -16 132 7 26 16 32
26 32 55 0 29 -5 37 -26 45 -30 12 -81 12 -109 0z"/>
<path d="M7755 1870 c-47 -19 -64 -81 -29 -107 26 -19 94 -16 132 7 26 16 32
26 32 55 0 29 -5 37 -26 45 -30 12 -81 12 -109 0z"/>
<path d="M4560 1270 l0 -110 121 0 c119 0 121 0 149 29 37 37 46 73 28 119
-21 57 -60 72 -190 72 l-108 0 0 -110z"/>
<path d="M4560 1010 l0 -110 130 0 c129 0 130 0 162 29 29 26 33 35 33 81 0
46 -4 55 -33 81 -32 29 -33 29 -162 29 l-130 0 0 -110z"/>
<path d="M5162 1233 c-12 -2 -40 -21 -61 -41 -139 -132 -3 -366 166 -285 44
21 81 76 89 134 15 112 -88 214 -194 192z"/>
<path d="M5604 1221 c-163 -75 -116 -331 61 -331 109 0 185 134 137 242 -38
86 -122 124 -198 89z"/>
<path d="M6696 1060 c-45 -14 -66 -39 -66 -79 0 -20 7 -46 15 -58 29 -42 118
-49 182 -14 35 18 53 52 53 98 0 40 -2 43 -37 52 -44 13 -106 13 -147 1z"/>
<path d="M7903 1229 c-18 -5 -48 -24 -67 -43 -35 -33 -36 -35 -36 -112 0 -68
4 -85 24 -115 32 -47 86 -73 141 -67 180 21 180 309 0 341 -16 3 -44 1 -62 -4z"/>
</g>
</svg>
